<svg width="11" height="13" viewBox="0 0 11 13" fill="none" xmlns="http://www.w3.org/2000/svg">
<g id="fa6-solid:location-dot" clip-path="url(#clip0_1_671)">
<path id="Vector" d="M6.11168 11.95C7.34918 10.4453 10.1016 6.79844 10.1016 4.75C10.1016 2.26469 8.06371 0.25 5.54983 0.25C3.0369 0.25 0.998107 2.26469 0.998107 4.75C0.998107 6.79844 3.77181 10.4453 4.98798 11.95C5.27957 12.3086 5.82009 12.3086 6.11168 11.95ZM5.54983 6.25C4.71298 6.25 4.03259 5.57734 4.03259 4.75C4.03259 3.92266 4.71298 3.25 5.54983 3.25C6.38668 3.25 7.06707 3.92266 7.06707 4.75C7.06707 5.57734 6.38668 6.25 5.54983 6.25Z" fill="#EC502C"/>
</g>
<defs>
<clipPath id="clip0_1_671">
<rect width="9.10345" height="12" fill="white" transform="matrix(-1 0 0 1 10.1016 0.25)"/>
</clipPath>
</defs>
</svg>
