<svg width="128" height="63" viewBox="0 0 128 63" fill="none" xmlns="http://www.w3.org/2000/svg">
<rect width="128" height="63" fill="#F5F5F5"/>
<g id="Dashboard">
<g clip-path="url(#clip0_0_1)">
<rect x="-716" y="-43" width="1440" height="1024" rx="60" fill="#141627"/>
<g id="Search">
<rect id="BG" x="-416" y="0.484375" width="536" height="62" rx="14" fill="#1C1F37"/>
</g>
<g id="Button">
<rect id="Bg" y="0.484375" width="128" height="62" rx="14" fill="#D1F366"/>
<path id="Search_2" d="M39.816 33.6924H37.384C37.3733 34.3964 37.5013 35.0044 37.768 35.5164C38.0347 36.0284 38.392 36.4497 38.84 36.7804C39.2987 37.111 39.8213 37.351 40.408 37.5004C41.0053 37.6604 41.6187 37.7404 42.248 37.7404C43.0267 37.7404 43.7093 37.6497 44.296 37.4684C44.8933 37.287 45.3893 37.0364 45.784 36.7164C46.1893 36.3857 46.4933 35.9964 46.696 35.5484C46.8987 35.1004 47 34.615 47 34.0924C47 33.4524 46.8613 32.9297 46.584 32.5244C46.3173 32.1084 45.9973 31.7777 45.624 31.5324C45.2507 31.287 44.872 31.111 44.488 31.0044C44.1147 30.887 43.8213 30.807 43.608 30.7644C42.8933 30.583 42.312 30.4337 41.864 30.3164C41.4267 30.199 41.08 30.0817 40.824 29.9644C40.5787 29.847 40.4133 29.719 40.328 29.5804C40.2427 29.4417 40.2 29.2604 40.2 29.0364C40.2 28.791 40.2533 28.5884 40.36 28.4284C40.4667 28.2684 40.6 28.135 40.76 28.0284C40.9307 27.9217 41.1173 27.847 41.32 27.8044C41.5227 27.7617 41.7253 27.7404 41.928 27.7404C42.2373 27.7404 42.52 27.767 42.776 27.8204C43.0427 27.8737 43.2773 27.9644 43.48 28.0924C43.6827 28.2204 43.8427 28.3964 43.96 28.6204C44.088 28.8444 44.1627 29.127 44.184 29.4684H46.616C46.616 28.807 46.488 28.247 46.232 27.7884C45.9867 27.319 45.6507 26.935 45.224 26.6364C44.7973 26.3377 44.3067 26.1244 43.752 25.9964C43.208 25.8577 42.6373 25.7884 42.04 25.7884C41.528 25.7884 41.016 25.8577 40.504 25.9964C39.992 26.135 39.5333 26.3484 39.128 26.6364C38.7227 26.9244 38.392 27.287 38.136 27.7244C37.8907 28.151 37.768 28.6577 37.768 29.2444C37.768 29.767 37.864 30.215 38.056 30.5884C38.2587 30.951 38.52 31.255 38.84 31.5004C39.16 31.7457 39.5227 31.9484 39.928 32.1084C40.3333 32.2577 40.7493 32.3857 41.176 32.4924C41.592 32.6097 42.0027 32.7164 42.408 32.8124C42.8133 32.9084 43.176 33.0204 43.496 33.1484C43.816 33.2764 44.072 33.4364 44.264 33.6284C44.4667 33.8204 44.568 34.071 44.568 34.3804C44.568 34.6684 44.4933 34.9084 44.344 35.1004C44.1947 35.2817 44.008 35.4257 43.784 35.5324C43.56 35.639 43.32 35.7137 43.064 35.7564C42.808 35.7884 42.568 35.8044 42.344 35.8044C42.0133 35.8044 41.6933 35.767 41.384 35.6924C41.0747 35.607 40.8027 35.4844 40.568 35.3244C40.344 35.1537 40.1627 34.935 40.024 34.6684C39.8853 34.4017 39.816 34.0764 39.816 33.6924ZM53.8226 32.4604H50.1266C50.1373 32.3004 50.1693 32.119 50.2226 31.9164C50.2866 31.7137 50.388 31.5217 50.5266 31.3404C50.676 31.159 50.868 31.0097 51.1026 30.8924C51.348 30.7644 51.652 30.7004 52.0146 30.7004C52.5693 30.7004 52.98 30.8497 53.2466 31.1484C53.524 31.447 53.716 31.8844 53.8226 32.4604ZM50.1266 33.9004H56.0946C56.1373 33.2604 56.084 32.647 55.9346 32.0604C55.7853 31.4737 55.54 30.951 55.1986 30.4924C54.868 30.0337 54.4413 29.671 53.9186 29.4044C53.396 29.127 52.7826 28.9884 52.0786 28.9884C51.4493 28.9884 50.8733 29.1004 50.3506 29.3244C49.8386 29.5484 49.396 29.8577 49.0226 30.2524C48.6493 30.6364 48.3613 31.095 48.1586 31.6284C47.956 32.1617 47.8546 32.7377 47.8546 33.3564C47.8546 33.9964 47.9506 34.583 48.1426 35.1164C48.3453 35.6497 48.628 36.1084 48.9906 36.4924C49.3533 36.8764 49.796 37.175 50.3186 37.3884C50.8413 37.591 51.428 37.6924 52.0786 37.6924C53.0173 37.6924 53.8173 37.479 54.4786 37.0524C55.14 36.6257 55.6306 35.9164 55.9506 34.9244H53.9506C53.876 35.1804 53.6733 35.4257 53.3426 35.6604C53.012 35.8844 52.6173 35.9964 52.1586 35.9964C51.5186 35.9964 51.028 35.831 50.6866 35.5004C50.3453 35.1697 50.1586 34.6364 50.1266 33.9004ZM57.3461 31.7564H59.6181C59.6608 31.3084 59.8101 30.9884 60.0661 30.7964C60.3221 30.6044 60.6741 30.5084 61.1221 30.5084C61.3248 30.5084 61.5115 30.5244 61.6821 30.5564C61.8635 30.5777 62.0181 30.631 62.1461 30.7164C62.2848 30.791 62.3915 30.903 62.4661 31.0524C62.5515 31.191 62.5941 31.383 62.5941 31.6284C62.6048 31.863 62.5355 32.0444 62.3861 32.1724C62.2368 32.2897 62.0341 32.3804 61.7781 32.4444C61.5221 32.5084 61.2288 32.5564 60.8981 32.5884C60.5675 32.6204 60.2315 32.663 59.8901 32.7164C59.5488 32.7697 59.2075 32.8444 58.8661 32.9404C58.5355 33.0257 58.2368 33.159 57.9701 33.3404C57.7141 33.5217 57.5008 33.767 57.3301 34.0764C57.1701 34.375 57.0901 34.759 57.0901 35.2284C57.0901 35.655 57.1595 36.023 57.2981 36.3324C57.4475 36.6417 57.6501 36.8977 57.9061 37.1004C58.1621 37.303 58.4608 37.4524 58.8021 37.5484C59.1435 37.6444 59.5115 37.6924 59.9061 37.6924C60.4181 37.6924 60.9195 37.6177 61.4101 37.4684C61.9008 37.319 62.3275 37.0577 62.6901 36.6844C62.7008 36.823 62.7168 36.9617 62.7381 37.1004C62.7701 37.2284 62.8075 37.3564 62.8501 37.4844H65.1541C65.0475 37.3137 64.9728 37.0577 64.9301 36.7164C64.8875 36.375 64.8661 36.0177 64.8661 35.6444V31.3404C64.8661 30.839 64.7541 30.439 64.5301 30.1404C64.3061 29.831 64.0181 29.591 63.6661 29.4204C63.3141 29.2497 62.9248 29.1377 62.4981 29.0844C62.0715 29.0204 61.6501 28.9884 61.2341 28.9884C60.7755 28.9884 60.3168 29.0364 59.8581 29.1324C59.4101 29.2177 59.0048 29.367 58.6421 29.5804C58.2795 29.7937 57.9808 30.0764 57.7461 30.4284C57.5115 30.7804 57.3781 31.223 57.3461 31.7564ZM62.5941 33.4364V34.2844C62.5941 34.4124 62.5781 34.583 62.5461 34.7964C62.5248 35.0097 62.4555 35.223 62.3381 35.4364C62.2208 35.639 62.0395 35.815 61.7941 35.9644C61.5488 36.1137 61.2021 36.1884 60.7541 36.1884C60.5728 36.1884 60.3968 36.1724 60.2261 36.1404C60.0555 36.1084 59.9061 36.055 59.7781 35.9804C59.6501 35.895 59.5488 35.783 59.4741 35.6444C59.3995 35.5057 59.3621 35.335 59.3621 35.1324C59.3621 34.919 59.3995 34.743 59.4741 34.6044C59.5488 34.4657 59.6448 34.3537 59.7621 34.2684C59.8901 34.1724 60.0341 34.0977 60.1941 34.0444C60.3648 33.991 60.5355 33.9484 60.7061 33.9164C60.8875 33.8844 61.0688 33.8577 61.2501 33.8364C61.4315 33.815 61.6021 33.7884 61.7621 33.7564C61.9328 33.7244 62.0875 33.687 62.2261 33.6444C62.3755 33.591 62.4981 33.5217 62.5941 33.4364ZM66.6296 29.2124V37.4844H68.9016V33.7564C68.9016 33.383 68.939 33.0364 69.0136 32.7164C69.0883 32.3964 69.211 32.119 69.3816 31.8844C69.563 31.639 69.7976 31.447 70.0856 31.3084C70.3736 31.1697 70.7256 31.1004 71.1416 31.1004C71.2803 31.1004 71.4243 31.111 71.5736 31.1324C71.723 31.143 71.851 31.159 71.9576 31.1804V29.0684C71.7763 29.015 71.611 28.9884 71.4616 28.9884C71.1736 28.9884 70.8963 29.031 70.6296 29.1164C70.363 29.2017 70.1123 29.3244 69.8776 29.4844C69.643 29.6337 69.435 29.8204 69.2536 30.0444C69.0723 30.2577 68.9283 30.4924 68.8216 30.7484H68.7896V29.2124H66.6296ZM78.1991 32.1244H80.4231C80.3911 31.591 80.2631 31.1324 80.0391 30.7484C79.8151 30.3537 79.5218 30.0284 79.1591 29.7724C78.8071 29.5057 78.4018 29.3084 77.9431 29.1804C77.4951 29.0524 77.0258 28.9884 76.5351 28.9884C75.8631 28.9884 75.2658 29.1004 74.7431 29.3244C74.2205 29.5484 73.7778 29.863 73.4151 30.2684C73.0525 30.663 72.7751 31.1377 72.5831 31.6924C72.4018 32.2364 72.3111 32.8284 72.3111 33.4684C72.3111 34.087 72.4125 34.6577 72.6151 35.1804C72.8178 35.6924 73.1005 36.135 73.4631 36.5084C73.8258 36.8817 74.2631 37.175 74.7751 37.3884C75.2978 37.591 75.8685 37.6924 76.4871 37.6924C77.5858 37.6924 78.4871 37.4044 79.1911 36.8284C79.8951 36.2524 80.3218 35.415 80.4711 34.3164H78.2791C78.2045 34.8284 78.0178 35.239 77.7191 35.5484C77.4311 35.847 77.0151 35.9964 76.4711 35.9964C76.1191 35.9964 75.8205 35.9164 75.5751 35.7564C75.3298 35.5964 75.1325 35.3937 74.9831 35.1484C74.8445 34.8924 74.7431 34.6097 74.6791 34.3004C74.6151 33.991 74.5831 33.687 74.5831 33.3884C74.5831 33.079 74.6151 32.7697 74.6791 32.4604C74.7431 32.1404 74.8498 31.8524 74.9991 31.5964C75.1591 31.3297 75.3618 31.1164 75.6071 30.9564C75.8525 30.7857 76.1565 30.7004 76.5191 30.7004C77.4898 30.7004 78.0498 31.175 78.1991 32.1244ZM81.7546 26.0604V37.4844H84.0266V33.1484C84.0266 32.3057 84.1653 31.703 84.4426 31.3404C84.72 30.967 85.168 30.7804 85.7866 30.7804C86.3306 30.7804 86.7093 30.951 86.9226 31.2924C87.136 31.623 87.2426 32.1297 87.2426 32.8124V37.4844H89.5146V32.3964C89.5146 31.8844 89.4666 31.4204 89.3706 31.0044C89.2853 30.5777 89.1306 30.2204 88.9066 29.9324C88.6826 29.6337 88.3733 29.4044 87.9786 29.2444C87.5946 29.0737 87.0986 28.9884 86.4906 28.9884C86.064 28.9884 85.6266 29.1004 85.1786 29.3244C84.7306 29.5377 84.3626 29.8844 84.0746 30.3644H84.0266V26.0604H81.7546Z" fill="#141627"/>
</g>
</g>
</g>
<defs>
<clipPath id="clip0_0_1">
<rect x="-716" y="-43" width="1440" height="1024" rx="60" fill="white"/>
</clipPath>
</defs>
</svg>
