<svg width="25" height="24" viewBox="0 0 25 24" fill="none" xmlns="http://www.w3.org/2000/svg">
<g id="noun-mail-4547835 1">
<g id="Group">
<path id="Vector" d="M17.9877 19.8972H7.73107C6.43899 19.8972 5.19984 19.384 4.28622 18.4703C3.3726 17.5567 2.85938 16.3175 2.85938 15.0255V8.87169C2.85938 7.57962 3.3726 6.34046 4.28622 5.42684C5.19984 4.51323 6.43904 4 7.73107 4H17.9877C19.2798 4 20.5189 4.51323 21.4325 5.42684C22.3461 6.34046 22.8594 7.57966 22.8594 8.87169V15.0255C22.8594 16.3176 22.3461 17.5567 21.4325 18.4703C20.5189 19.384 19.2797 19.8972 17.9877 19.8972ZM7.73107 5.53862C6.84782 5.5412 6.00168 5.89336 5.37702 6.51782C4.75254 7.1423 4.40055 7.98862 4.39782 8.87187V15.0257C4.40057 15.9089 4.75256 16.7552 5.37702 17.3797C6.00168 18.0042 6.84782 18.3564 7.73107 18.3589H17.9877C18.8709 18.3563 19.7171 18.0042 20.3417 17.3797C20.9662 16.7552 21.3182 15.9089 21.3209 15.0257V8.87187C21.3182 7.98862 20.9662 7.1423 20.3417 6.51782C19.7171 5.89335 18.8709 5.54117 17.9877 5.53862H7.73107Z" fill="#5F647E"/>
<path id="Vector_2" d="M12.8569 12.7182C11.7721 12.7201 10.7181 12.359 9.86211 11.6926L6.36473 8.97455C6.18754 8.85556 6.06786 8.66823 6.03404 8.45754C6.00038 8.24669 6.05584 8.03138 6.18703 7.86313C6.31838 7.69486 6.5136 7.58858 6.72619 7.56986C6.93875 7.55115 7.1496 7.62155 7.30825 7.7644L10.8056 10.4823C11.393 10.9364 12.1145 11.1828 12.8569 11.1828C13.5994 11.1828 14.3209 10.9364 14.9083 10.4823L18.4056 7.7644C18.5643 7.62155 18.7751 7.55115 18.9877 7.56986C19.2003 7.58858 19.3955 7.69486 19.5269 7.86313C19.658 8.0314 19.7135 8.24671 19.6799 8.45754C19.646 8.66822 19.5264 8.85555 19.3492 8.97455L15.8518 11.6924V11.6926C14.9958 12.359 13.9418 12.7201 12.8569 12.7182L12.8569 12.7182Z" fill="#5F647E"/>
</g>
</g>
</svg>
