<svg width="25" height="24" viewBox="0 0 25 24" fill="none" xmlns="http://www.w3.org/2000/svg">
<g id="noun-calculator-4547811 1">
<path id="Vector" d="M17.1019 2H8.61682C7.08982 2 5.62537 2.60654 4.54564 3.68627C3.46591 4.766 2.85938 6.2305 2.85938 7.75745V16.2426C2.85938 17.7696 3.46591 19.234 4.54564 20.3137C5.62537 21.3935 7.08988 22 8.61682 22H17.1019C18.6289 22 20.0934 21.3935 21.1731 20.3137C22.2528 19.234 22.8594 17.7695 22.8594 16.2426V7.75745C22.8594 6.23045 22.2528 4.766 21.1731 3.68627C20.0934 2.60654 18.6289 2 17.1019 2ZM8.61734 3.81816H17.1019C18.1458 3.82141 19.1458 4.23739 19.884 4.9754C20.622 5.71362 21.038 6.71361 21.0412 7.75745V8.0604L4.9806 8.06061C4.8767 8.06203 4.77403 8.08252 4.67764 8.12108V7.75745C4.68089 6.71361 5.09687 5.71362 5.83488 4.9754C6.5731 4.23738 7.57309 3.82138 8.61693 3.81816L8.61734 3.81816ZM14.9809 20.1816H10.7385V15.9392H14.9809V20.1816ZM14.9809 14.1209H10.7385V9.87846H14.9809V14.1209ZM4.67764 9.818C4.77403 9.85655 4.8767 9.87705 4.9806 9.87867H8.92009V14.1211L4.9806 14.1209C4.8767 14.1225 4.77403 14.143 4.67764 14.1816V9.818ZM4.67764 16.2423V15.8787C4.77403 15.9173 4.8767 15.9378 4.9806 15.9392H8.92009V20.1816H8.61693C7.5731 20.1784 6.57311 19.7624 5.83488 19.0244C5.09686 18.2862 4.68087 17.2862 4.67765 16.2424L4.67764 16.2423ZM17.1019 20.1816H16.799V9.87888H21.0414L21.0412 16.2424C21.038 17.2863 20.622 18.2863 19.884 19.0245C19.1458 19.7625 18.1458 20.1785 17.1019 20.1817L17.1019 20.1816Z" fill="black"/>
</g>
</svg>
